<svg id="visual" viewBox="0 0 900 600" width="900" height="600" xmlns="http://www.w3.org/2000/svg" xmlns:xlink="http://www.w3.org/1999/xlink" version="1.1"><rect x="0" y="0" width="900" height="600" fill="#01101a"></rect><defs><linearGradient id="grad1_0" x1="33.3%" y1="0%" x2="100%" y2="100%"><stop offset="20%" stop-color="#3c87fa" stop-opacity="1"></stop><stop offset="80%" stop-color="#3c87fa" stop-opacity="1"></stop></linearGradient></defs><defs><linearGradient id="grad1_1" x1="33.3%" y1="0%" x2="100%" y2="100%"><stop offset="20%" stop-color="#3c87fa" stop-opacity="1"></stop><stop offset="80%" stop-color="#1876d7" stop-opacity="1"></stop></linearGradient></defs><defs><linearGradient id="grad1_2" x1="33.3%" y1="0%" x2="100%" y2="100%"><stop offset="20%" stop-color="#0065b5" stop-opacity="1"></stop><stop offset="80%" stop-color="#1876d7" stop-opacity="1"></stop></linearGradient></defs><defs><linearGradient id="grad1_3" x1="33.3%" y1="0%" x2="100%" y2="100%"><stop offset="20%" stop-color="#0065b5" stop-opacity="1"></stop><stop offset="80%" stop-color="#005493" stop-opacity="1"></stop></linearGradient></defs><defs><linearGradient id="grad1_4" x1="33.3%" y1="0%" x2="100%" y2="100%"><stop offset="20%" stop-color="#004372" stop-opacity="1"></stop><stop offset="80%" stop-color="#005493" stop-opacity="1"></stop></linearGradient></defs><defs><linearGradient id="grad1_5" x1="33.3%" y1="0%" x2="100%" y2="100%"><stop offset="20%" stop-color="#004372" stop-opacity="1"></stop><stop offset="80%" stop-color="#003252" stop-opacity="1"></stop></linearGradient></defs><defs><linearGradient id="grad1_6" x1="33.3%" y1="0%" x2="100%" y2="100%"><stop offset="20%" stop-color="#022135" stop-opacity="1"></stop><stop offset="80%" stop-color="#003252" stop-opacity="1"></stop></linearGradient></defs><defs><linearGradient id="grad1_7" x1="33.3%" y1="0%" x2="100%" y2="100%"><stop offset="20%" stop-color="#022135" stop-opacity="1"></stop><stop offset="80%" stop-color="#01101a" stop-opacity="1"></stop></linearGradient></defs><defs><linearGradient id="grad2_0" x1="0%" y1="0%" x2="66.7%" y2="100%"><stop offset="20%" stop-color="#3c87fa" stop-opacity="1"></stop><stop offset="80%" stop-color="#3c87fa" stop-opacity="1"></stop></linearGradient></defs><defs><linearGradient id="grad2_1" x1="0%" y1="0%" x2="66.7%" y2="100%"><stop offset="20%" stop-color="#1876d7" stop-opacity="1"></stop><stop offset="80%" stop-color="#3c87fa" stop-opacity="1"></stop></linearGradient></defs><defs><linearGradient id="grad2_2" x1="0%" y1="0%" x2="66.7%" y2="100%"><stop offset="20%" stop-color="#1876d7" stop-opacity="1"></stop><stop offset="80%" stop-color="#0065b5" stop-opacity="1"></stop></linearGradient></defs><defs><linearGradient id="grad2_3" x1="0%" y1="0%" x2="66.7%" y2="100%"><stop offset="20%" stop-color="#005493" stop-opacity="1"></stop><stop offset="80%" stop-color="#0065b5" stop-opacity="1"></stop></linearGradient></defs><defs><linearGradient id="grad2_4" x1="0%" y1="0%" x2="66.7%" y2="100%"><stop offset="20%" stop-color="#005493" stop-opacity="1"></stop><stop offset="80%" stop-color="#004372" stop-opacity="1"></stop></linearGradient></defs><defs><linearGradient id="grad2_5" x1="0%" y1="0%" x2="66.7%" y2="100%"><stop offset="20%" stop-color="#003252" stop-opacity="1"></stop><stop offset="80%" stop-color="#004372" stop-opacity="1"></stop></linearGradient></defs><defs><linearGradient id="grad2_6" x1="0%" y1="0%" x2="66.7%" y2="100%"><stop offset="20%" stop-color="#003252" stop-opacity="1"></stop><stop offset="80%" stop-color="#022135" stop-opacity="1"></stop></linearGradient></defs><defs><linearGradient id="grad2_7" x1="0%" y1="0%" x2="66.7%" y2="100%"><stop offset="20%" stop-color="#01101a" stop-opacity="1"></stop><stop offset="80%" stop-color="#022135" stop-opacity="1"></stop></linearGradient></defs><g transform="translate(900, 0)"><path d="M0 540.8C-57.4 491.4 -114.7 442 -170.3 411.1C-225.9 380.3 -279.6 367.9 -339.4 339.4C-399.2 310.9 -465.1 266.2 -499.7 207C-534.2 147.7 -537.5 73.9 -540.8 0L0 0Z" fill="#051927"></path><path d="M0 473.2C-50.2 430 -100.4 386.8 -149 359.7C-197.6 332.7 -244.7 321.9 -297 297C-349.3 272 -406.9 233 -437.2 181.1C-467.5 129.2 -470.3 64.6 -473.2 0L0 0Z" fill="#002943"></path><path d="M0 405.6C-43 368.6 -86.1 331.5 -127.7 308.3C-169.4 285.2 -209.7 275.9 -254.6 254.6C-299.4 233.2 -348.8 199.7 -374.7 155.2C-400.7 110.8 -403.2 55.4 -405.6 0L0 0Z" fill="#003a62"></path><path d="M0 338C-35.9 307.1 -71.7 276.3 -106.4 257C-141.2 237.7 -174.8 229.9 -212.1 212.1C-249.5 194.3 -290.7 166.4 -312.3 129.4C-333.9 92.3 -336 46.2 -338 0L0 0Z" fill="#004b82"></path><path d="M0 270.4C-28.7 245.7 -57.4 221 -85.1 205.6C-112.9 190.1 -139.8 184 -169.7 169.7C-199.6 155.5 -232.5 133.1 -249.8 103.5C-267.1 73.9 -268.8 36.9 -270.4 0L0 0Z" fill="#005da4"></path><path d="M0 202.8C-21.5 184.3 -43 165.8 -63.9 154.2C-84.7 142.6 -104.9 138 -127.3 127.3C-149.7 116.6 -174.4 99.8 -187.4 77.6C-200.3 55.4 -201.6 27.7 -202.8 0L0 0Z" fill="#006ec6"></path><path d="M0 135.2C-14.3 122.9 -28.7 110.5 -42.6 102.8C-56.5 95.1 -69.9 92 -84.9 84.9C-99.8 77.7 -116.3 66.6 -124.9 51.7C-133.6 36.9 -134.4 18.5 -135.2 0L0 0Z" fill="#2b7fe9"></path><path d="M0 67.6C-7.2 61.4 -14.3 55.3 -21.3 51.4C-28.2 47.5 -35 46 -42.4 42.4C-49.9 38.9 -58.1 33.3 -62.5 25.9C-66.8 18.5 -67.2 9.2 -67.6 0L0 0Z" fill="#3c87fa"></path></g><g transform="translate(0, 600)"><path d="M0 -540.8C77.1 -539.8 154.3 -538.8 207 -499.7C259.6 -460.6 287.8 -383.4 328.8 -328.8C369.8 -274.2 423.5 -242 461 -191C498.5 -139.9 519.7 -70 540.8 0L0 0Z" fill="#051927"></path><path d="M0 -473.2C67.5 -472.3 135 -471.4 181.1 -437.2C227.2 -403 251.8 -335.5 287.7 -287.7C323.6 -239.9 370.6 -211.8 403.4 -167.1C436.2 -122.4 454.7 -61.2 473.2 0L0 0Z" fill="#002943"></path><path d="M0 -405.6C57.9 -404.8 115.7 -404.1 155.2 -374.7C194.7 -345.4 215.9 -287.6 246.6 -246.6C277.3 -205.6 317.7 -181.5 345.8 -143.2C373.9 -104.9 389.7 -52.5 405.6 0L0 0Z" fill="#003a62"></path><path d="M0 -338C48.2 -337.4 96.4 -336.7 129.4 -312.3C162.3 -287.9 179.9 -239.7 205.5 -205.5C231.1 -171.4 264.7 -151.3 288.1 -119.3C311.6 -87.4 324.8 -43.7 338 0L0 0Z" fill="#004b82"></path><path d="M0 -270.4C38.6 -269.9 77.1 -269.4 103.5 -249.8C129.8 -230.3 143.9 -191.7 164.4 -164.4C184.9 -137.1 211.8 -121 230.5 -95.5C249.2 -70 259.8 -35 270.4 0L0 0Z" fill="#005da4"></path><path d="M0 -202.8C28.9 -202.4 57.9 -202 77.6 -187.4C97.4 -172.7 107.9 -143.8 123.3 -123.3C138.7 -102.8 158.8 -90.8 172.9 -71.6C186.9 -52.5 194.9 -26.2 202.8 0L0 0Z" fill="#006ec6"></path><path d="M0 -135.2C19.3 -134.9 38.6 -134.7 51.7 -124.9C64.9 -115.1 72 -95.9 82.2 -82.2C92.4 -68.5 105.9 -60.5 115.3 -47.7C124.6 -35 129.9 -17.5 135.2 0L0 0Z" fill="#2b7fe9"></path><path d="M0 -67.6C9.6 -67.5 19.3 -67.3 25.9 -62.5C32.5 -57.6 36 -47.9 41.1 -41.1C46.2 -34.3 52.9 -30.3 57.6 -23.9C62.3 -17.5 65 -8.7 67.6 0L0 0Z" fill="#3c87fa"></path></g></svg>