<svg id="visual" viewBox="0 0 900 600" width="900" height="600" xmlns="http://www.w3.org/2000/svg" xmlns:xlink="http://www.w3.org/1999/xlink" version="1.1"><rect x="0" y="0" width="900" height="600" fill="#931C1C"></rect><path d="M0 386L129 381L257 427L386 438L514 412L643 443L771 413L900 382L900 601L771 601L643 601L514 601L386 601L257 601L129 601L0 601Z" fill="#871400"></path><path d="M0 402L129 475L257 417L386 432L514 454L643 426L771 477L900 438L900 601L771 601L643 601L514 601L386 601L257 601L129 601L0 601Z" fill="#cc4f08"></path><path d="M0 481L129 480L257 464L386 447L514 466L643 473L771 500L900 487L900 601L771 601L643 601L514 601L386 601L257 601L129 601L0 601Z" fill="#f5730a"></path><path d="M0 497L129 501L257 492L386 528L514 523L643 540L771 493L900 542L900 601L771 601L643 601L514 601L386 601L257 601L129 601L0 601Z" fill="#cc4f08"></path><path d="M0 548L129 560L257 565L386 542L514 549L643 540L771 565L900 552L900 601L771 601L643 601L514 601L386 601L257 601L129 601L0 601Z" fill="#871400"></path></svg>