<svg id="visual" viewBox="0 0 900 600" width="900" height="600" xmlns="http://www.w3.org/2000/svg" xmlns:xlink="http://www.w3.org/1999/xlink" version="1.1"><rect x="0" y="0" width="900" height="600" fill="#001220"></rect><path d="M0 371L21.5 381.8C43 392.7 86 414.3 128.8 416C171.7 417.7 214.3 399.3 257.2 390.2C300 381 343 381 385.8 377.3C428.7 373.7 471.3 366.3 514.2 363.7C557 361 600 363 642.8 370.8C685.7 378.7 728.3 392.3 771.2 398.8C814 405.3 857 404.7 878.5 404.3L900 404L900 601L878.5 601C857 601 814 601 771.2 601C728.3 601 685.7 601 642.8 601C600 601 557 601 514.2 601C471.3 601 428.7 601 385.8 601C343 601 300 601 257.2 601C214.3 601 171.7 601 128.8 601C86 601 43 601 21.5 601L0 601Z" fill="#fa7268"></path><path d="M0 405L21.5 414.5C43 424 86 443 128.8 442.7C171.7 442.3 214.3 422.7 257.2 416C300 409.3 343 415.7 385.8 424.7C428.7 433.7 471.3 445.3 514.2 445.7C557 446 600 435 642.8 435C685.7 435 728.3 446 771.2 448.3C814 450.7 857 444.3 878.5 441.2L900 438L900 601L878.5 601C857 601 814 601 771.2 601C728.3 601 685.7 601 642.8 601C600 601 557 601 514.2 601C471.3 601 428.7 601 385.8 601C343 601 300 601 257.2 601C214.3 601 171.7 601 128.8 601C86 601 43 601 21.5 601L0 601Z" fill="#ef5f67"></path><path d="M0 439L21.5 444.2C43 449.3 86 459.7 128.8 467C171.7 474.3 214.3 478.7 257.2 482.7C300 486.7 343 490.3 385.8 490.7C428.7 491 471.3 488 514.2 480.2C557 472.3 600 459.7 642.8 462.2C685.7 464.7 728.3 482.3 771.2 486.8C814 491.3 857 482.7 878.5 478.3L900 474L900 601L878.5 601C857 601 814 601 771.2 601C728.3 601 685.7 601 642.8 601C600 601 557 601 514.2 601C471.3 601 428.7 601 385.8 601C343 601 300 601 257.2 601C214.3 601 171.7 601 128.8 601C86 601 43 601 21.5 601L0 601Z" fill="#e34c67"></path><path d="M0 492L21.5 492C43 492 86 492 128.8 494.8C171.7 497.7 214.3 503.3 257.2 504.7C300 506 343 503 385.8 506.7C428.7 510.3 471.3 520.7 514.2 523.8C557 527 600 523 642.8 516.5C685.7 510 728.3 501 771.2 499.3C814 497.7 857 503.3 878.5 506.2L900 509L900 601L878.5 601C857 601 814 601 771.2 601C728.3 601 685.7 601 642.8 601C600 601 557 601 514.2 601C471.3 601 428.7 601 385.8 601C343 601 300 601 257.2 601C214.3 601 171.7 601 128.8 601C86 601 43 601 21.5 601L0 601Z" fill="#d53867"></path><path d="M0 555L21.5 554C43 553 86 551 128.8 551.2C171.7 551.3 214.3 553.7 257.2 556.2C300 558.7 343 561.3 385.8 563C428.7 564.7 471.3 565.3 514.2 565.7C557 566 600 566 642.8 564.5C685.7 563 728.3 560 771.2 556.8C814 553.7 857 550.3 878.5 548.7L900 547L900 601L878.5 601C857 601 814 601 771.2 601C728.3 601 685.7 601 642.8 601C600 601 557 601 514.2 601C471.3 601 428.7 601 385.8 601C343 601 300 601 257.2 601C214.3 601 171.7 601 128.8 601C86 601 43 601 21.5 601L0 601Z" fill="#c62368"></path></svg>