<svg id="visual" viewBox="0 0 900 600" width="900" height="600" xmlns="http://www.w3.org/2000/svg" xmlns:xlink="http://www.w3.org/1999/xlink" version="1.1"><rect x="0" y="0" width="900" height="600" fill="#931C1C"></rect><path d="M0 362L129 383L257 398L386 417L514 442L643 392L771 351L900 434L900 601L771 601L643 601L514 601L386 601L257 601L129 601L0 601Z" fill="#f5730a"></path><path d="M0 458L129 407L257 439L386 453L514 470L643 402L771 472L900 456L900 601L771 601L643 601L514 601L386 601L257 601L129 601L0 601Z" fill="#b03806"></path><path d="M0 470L129 500L257 475L386 487L514 447L643 440L771 484L900 467L900 601L771 601L643 601L514 601L386 601L257 601L129 601L0 601Z" fill="#871400"></path><path d="M0 495L129 492L257 500L386 519L514 510L643 484L771 509L900 528L900 601L771 601L643 601L514 601L386 601L257 601L129 601L0 601Z" fill="#b03806"></path><path d="M0 557L129 568L257 553L386 529L514 546L643 562L771 567L900 543L900 601L771 601L643 601L514 601L386 601L257 601L129 601L0 601Z" fill="#f5730a"></path></svg>