<svg id="visual" viewBox="0 0 900 600" width="900" height="600" xmlns="http://www.w3.org/2000/svg" xmlns:xlink="http://www.w3.org/1999/xlink" version="1.1"><rect x="0" y="0" width="900" height="600" fill="#dbe0e5"></rect><path d="M0 401L129 361L257 431L386 389L514 432L643 443L771 367L900 366L900 601L771 601L643 601L514 601L386 601L257 601L129 601L0 601Z" fill="#ef7f23"></path><path d="M0 451L129 471L257 465L386 473L514 418L643 450L771 403L900 468L900 601L771 601L643 601L514 601L386 601L257 601L129 601L0 601Z" fill="#dd681a"></path><path d="M0 477L129 480L257 461L386 455L514 474L643 499L771 472L900 454L900 601L771 601L643 601L514 601L386 601L257 601L129 601L0 601Z" fill="#ca5112"></path><path d="M0 539L129 493L257 512L386 533L514 533L643 533L771 534L900 511L900 601L771 601L643 601L514 601L386 601L257 601L129 601L0 601Z" fill="#b6390b"></path><path d="M0 525L129 525L257 565L386 562L514 534L643 538L771 529L900 540L900 601L771 601L643 601L514 601L386 601L257 601L129 601L0 601Z" fill="#a21d06"></path></svg>