<svg id="visual" viewBox="0 0 900 600" width="900" height="600" xmlns="http://www.w3.org/2000/svg" xmlns:xlink="http://www.w3.org/1999/xlink" version="1.1"><rect x="0" y="0" width="900" height="600" fill="#931C1C"></rect><path d="M0 344L75 353L150 352L225 322L300 340L375 323L450 355L525 308L600 314L675 348L750 367L825 326L900 361L900 601L825 601L750 601L675 601L600 601L525 601L450 601L375 601L300 601L225 601L150 601L75 601L0 601Z" fill="#f5730a"></path><path d="M0 390L75 361L150 369L225 394L300 386L375 399L450 390L525 382L600 351L675 394L750 352L825 363L900 388L900 601L825 601L750 601L675 601L600 601L525 601L450 601L375 601L300 601L225 601L150 601L75 601L0 601Z" fill="#e3630a"></path><path d="M0 392L75 424L150 427L225 407L300 417L375 430L450 406L525 390L600 415L675 387L750 433L825 402L900 434L900 601L825 601L750 601L675 601L600 601L525 601L450 601L375 601L300 601L225 601L150 601L75 601L0 601Z" fill="#d15308"></path><path d="M0 459L75 458L150 433L225 433L300 441L375 429L450 429L525 435L600 460L675 452L750 442L825 461L900 436L900 601L825 601L750 601L675 601L600 601L525 601L450 601L375 601L300 601L225 601L150 601L75 601L0 601Z" fill="#be4407"></path><path d="M0 481L75 492L150 479L225 466L300 473L375 487L450 474L525 493L600 487L675 471L750 491L825 473L900 489L900 601L825 601L750 601L675 601L600 601L525 601L450 601L375 601L300 601L225 601L150 601L75 601L0 601Z" fill="#ac3505"></path><path d="M0 533L75 515L150 519L225 521L300 528L375 532L450 532L525 529L600 504L675 523L750 502L825 506L900 534L900 601L825 601L750 601L675 601L600 601L525 601L450 601L375 601L300 601L225 601L150 601L75 601L0 601Z" fill="#992503"></path><path d="M0 546L75 558L150 547L225 544L300 553L375 564L450 541L525 561L600 555L675 559L750 545L825 542L900 554L900 601L825 601L750 601L675 601L600 601L525 601L450 601L375 601L300 601L225 601L150 601L75 601L0 601Z" fill="#871400"></path></svg>