<svg id="visual" viewBox="0 0 900 600" width="900" height="600" xmlns="http://www.w3.org/2000/svg" xmlns:xlink="http://www.w3.org/1999/xlink" version="1.1"><rect x="0" y="0" width="900" height="600" fill="#002233"></rect><path d="M0 374L21.5 377.7C43 381.3 86 388.7 128.8 400.8C171.7 413 214.3 430 257.2 448.3C300 466.7 343 486.3 385.8 477.5C428.7 468.7 471.3 431.3 514.2 415.3C557 399.3 600 404.7 642.8 411.3C685.7 418 728.3 426 771.2 431.5C814 437 857 440 878.5 441.5L900 443L900 601L878.5 601C857 601 814 601 771.2 601C728.3 601 685.7 601 642.8 601C600 601 557 601 514.2 601C471.3 601 428.7 601 385.8 601C343 601 300 601 257.2 601C214.3 601 171.7 601 128.8 601C86 601 43 601 21.5 601L0 601Z" fill="#0066FF" stroke-linecap="round" stroke-linejoin="miter"></path></svg>